<svg width="40" height="40" viewBox="0 0 40 40" fill="none" xmlns="http://www.w3.org/2000/svg">
<path d="M19.7958 4.53233C15.0297 5.8847 9.91295 4.28914 6.76039 0.46733C6.57255 0.239707 6.31212 0.0836416 6.02282 0.0253403C5.73351 -0.0329605 5.43296 0.0100523 5.17162 0.147157C4.91028 0.284262 4.70408 0.50711 4.58762 0.778281C4.47117 1.04945 4.45156 1.35243 4.5321 1.63635C5.88453 6.40239 4.28894 11.5191 0.467197 14.6716C0.239621 14.8594 0.0835949 15.1199 0.0253126 15.4091C-0.0329697 15.6984 0.01004 15.9989 0.147122 16.2602C0.284204 16.5216 0.507011 16.7277 0.77814 16.8442C1.04927 16.9607 1.35221 16.9803 1.63612 16.8999C6.40212 15.5475 11.5187 17.1431 14.6713 20.9648C14.8591 21.1925 15.1195 21.3486 15.4088 21.4069C15.6981 21.4652 15.9987 21.4222 16.2601 21.2851C16.5214 21.148 16.7276 20.9252 16.8441 20.654C16.9605 20.3828 16.9801 20.0798 16.8996 19.7959C15.5472 15.0298 17.1429 9.91308 20.9646 6.76063C21.1923 6.57283 21.3484 6.31241 21.4068 6.0231C21.4651 5.73379 21.4221 5.43322 21.285 5.17186C21.1479 4.9105 20.9251 4.70428 20.6539 4.58782C20.3827 4.47137 20.0797 4.45177 19.7958 4.53233ZM27.7791 24.3249C25.5336 24.9621 23.1228 24.2104 21.6373 22.4097C21.4495 22.182 21.1891 22.0259 20.8998 21.9676C20.6104 21.9092 20.3099 21.9522 20.0485 22.0893C19.7872 22.2264 19.5809 22.4492 19.4645 22.7204C19.348 22.9916 19.3284 23.2946 19.409 23.5785C20.0461 25.8242 19.2943 28.235 17.4937 29.7203C17.2661 29.9082 17.1101 30.1686 17.0518 30.4579C16.9936 30.7471 17.0366 31.0477 17.1736 31.309C17.3107 31.5703 17.5335 31.7765 17.8047 31.893C18.0758 32.0094 18.3787 32.0291 18.6626 31.9486C20.9081 31.3115 23.319 32.0632 24.8044 33.8639C24.9922 34.0916 25.2526 34.2477 25.5419 34.306C25.8312 34.3643 26.1318 34.3213 26.3932 34.1842C26.6545 34.0471 26.8607 33.8243 26.9772 33.5531C27.0936 33.2819 27.1132 32.9789 27.0326 32.695C26.3955 30.4493 27.1473 28.0385 28.948 26.5531C29.1755 26.3653 29.3316 26.1049 29.3899 25.8156C29.4481 25.5263 29.4051 25.2258 29.2681 24.9645C29.131 24.7032 28.9082 24.497 28.637 24.3805C28.3659 24.264 28.063 24.2444 27.7791 24.3249ZM37.6297 5.71678C34.5944 6.57803 31.3359 5.56187 29.3283 3.12808C29.1405 2.90041 28.8801 2.74429 28.5907 2.68595C28.3014 2.62761 28.0009 2.67059 27.7395 2.80769C27.4782 2.94478 27.2719 3.16764 27.1555 3.43882C27.039 3.71 27.0194 4.013 27.1 4.29693C27.9612 7.3322 26.9451 10.5907 24.5113 12.5984C24.2837 12.7862 24.1277 13.0466 24.0694 13.3359C24.0111 13.6252 24.0541 13.9257 24.1912 14.187C24.3283 14.4483 24.5511 14.6545 24.8222 14.771C25.0934 14.8875 25.3963 14.9071 25.6802 14.8266C28.7154 13.9654 31.9739 14.9815 33.9816 17.4154C34.1694 17.643 34.4298 17.7991 34.7191 17.8575C35.0084 17.9158 35.309 17.8728 35.5703 17.7357C35.8317 17.5986 36.0379 17.3757 36.1544 17.1046C36.2708 16.8334 36.2904 16.5304 36.2098 16.2464C35.3486 13.2111 36.3647 9.95266 38.7986 7.94507C39.0262 7.75727 39.1824 7.49685 39.2407 7.20754C39.299 6.91824 39.256 6.61766 39.119 6.35631C38.9819 6.09495 38.759 5.88872 38.4878 5.77227C38.2166 5.65581 37.9136 5.63622 37.6297 5.71678Z" fill="#AD3ADA"/>
</svg>
